# xmcd
#
# Track frame offsets: 
#        150
#        14935
#        23130
#        35182
#        49400
#        60285
#        74422
#        84972
#        97757
#        109327
#        120547
#        140975
#        152210
#        163875
#        177307
#        190510
#        200655
#        208917
#        221197
#        230460
#        244087
#        254085
#        267940
#
# Disc length: 3740 seconds
#
# Revision: 2
# Processed by: cddbd v1.5.2PL0 Copyright (c) Steve Scherf et al.
# Submitted via: ExactAudioCopy v1.0b1
#
DISCID=650e9a17
DTITLE=Lowell Fulson - The Complete Chess Masters [CD2]
DYEAR=1997
DGENRE=Blues
TTITLE0=I Wanna Make Love To You (mono)
TTITLE1=You Better Rock This Moring (mono)
TTITLE2=That's All Right (mono)
TTITLE3=Worry, Worry (mono)
TTITLE4=Coming Home (mono)
TTITLE5=Have You Changed Your Mind (mono)
TTITLE6=K.C. Bound (mono)
TTITLE7=I'm Glad You Reconsidered (mono)
TTITLE8=Low Society (mono)
TTITLE9=Blue Shadows (1960) (mono)
TTITLE10=I Want To Know (Parts 1 and 2) (mono)
TTITLE11=So Many Tears (mono)
TTITLE12=Why Don't You Write Me (mono)
TTITLE13=Hung Down Head (mono)
TTITLE14=Pay Day Blues (mono)
TTITLE15=Shed No Tears (mono)
TTITLE16=Can She (Do It) (mono)
TTITLE17=Trouble With The Blues (mono)
TTITLE18=Love Grows Cold (mono)
TTITLE19=Blue Soul (mono)
TTITLE20=Love 'N' Things (mono)
TTITLE21=Father Time (mono)
TTITLE22=Swinging Party (mono)
EXTD=YEAR: 1997
EXTT0=
EXTT1=
EXTT2=
EXTT3=
EXTT4=
EXTT5=
EXTT6=
EXTT7=
EXTT8=
EXTT9=
EXTT10=
EXTT11=
EXTT12=
EXTT13=
EXTT14=
EXTT15=
EXTT16=
EXTT17=
EXTT18=
EXTT19=
EXTT20=
EXTT21=
EXTT22=
PLAYORDER=
